# xmcd
#
# Track frame offsets:
#	150
#	11885
#	30187
#	47027
#	58640
#	72292
#	87890
#	103217
#	118435
#	136917
#	151927
#	167560
#
# Disc length: 2436 seconds
#
# Revision: 4
# Processed by: cddbd v1.5.1PL0 Copyright (c) Steve Scherf et al.
# Submitted via: EasyCDDAExtractor 7.7.1.2
#
DISCID=9c09820c
DTITLE=The Statler Brothers - Amen
DYEAR=2002
DGENRE=Gospel
TTITLE0=A Place On Calvary
TTITLE1=Hide Thou Me
TTITLE2=It Might Be Jesus
TTITLE3=He's Gettin' Me Ready
TTITLE4=God Saw My Need
TTITLE5=Keep Your Eyes On Jesus
TTITLE6=Jesus Living Next To Me
TTITLE7=If It Only Took A Baby
TTITLE8=Far Side Banks Of Jordan
TTITLE9=When I Take My Vacation In Heaven
TTITLE10=I Should Have Known You, Lord
TTITLE11=A Living Part Of You
EXTD=YEAR: 2002 ID3G: 38
EXTT0=
EXTT1=
EXTT2=
EXTT3=
EXTT4=
EXTT5=
EXTT6=
EXTT7=
EXTT8=
EXTT9=
EXTT10=
EXTT11=
PLAYORDER=
